<svg xmlns="http://www.w3.org/2000/svg" xmlns:xlink="http://www.w3.org/1999/xlink" viewBox="0 0 142.8 162"><defs><style>.a{fill:#17aaff;}.b{fill:#3c0;}.c{fill:#e700da;}.d{fill:#00bcd0;}.e{fill:url(#a);}.f{fill:#f71934;}.g{fill:#ed900a;}.h{fill:#fcf62b;}.i{fill:#4c4c4b;}.j{fill:#727268;}</style><linearGradient id="a" x1="71.95" y1="111.97" x2="71.95" y2="45.09" gradientUnits="userSpaceOnUse"><stop offset="0.61"/><stop offset="0.76" stop-color="#000200"/><stop offset="0.81" stop-color="#000900"/><stop offset="0.84" stop-color="#001400"/><stop offset="0.87" stop-color="#002500"/><stop offset="0.9" stop-color="#003b00"/><stop offset="0.92" stop-color="#005700"/><stop offset="0.94" stop-color="#070"/><stop offset="0.96" stop-color="#009d00"/><stop offset="0.98" stop-color="#00c800"/><stop offset="0.99" stop-color="#00f600"/><stop offset="0.99" stop-color="lime"/></linearGradient></defs><title>rrl-logo-green</title><path class="a" d="M71.4,3C82.51,3,94.9,35,94.9,81s-12.38,78-23.5,78S47.9,127,47.9,81,60.28,3,71.4,3m0-3C56.78,0,44.92,36.26,44.92,81s11.85,81,26.48,81,26.48-36.26,26.48-81S86,0,71.4,0Z"/><path class="a" d="M126,37.43c8.56,0,11.79,2.48,13,4.56,5.56,9.63-16,36.37-55.82,59.36-24.81,14.32-50.22,23.22-66.32,23.22-8.57,0-11.8-2.48-13-4.56-5.56-9.63,16-36.37,55.82-59.36C84.46,46.33,109.87,37.43,126,37.43h0m0-3c-16.06,0-41.62,8.5-67.81,23.62C19.42,80.44-6.06,108.84,1.25,121.5c2.37,4.1,7.88,6,15.58,6,16.06,0,41.62-8.5,67.81-23.62,38.74-22.37,64.22-50.77,56.91-63.43-2.37-4.1-7.88-6-15.58-6Z"/><path class="a" d="M16.83,37.43c16.1,0,41.51,8.9,66.32,23.22C123,83.64,144.53,110.39,139,120c-1.2,2.08-4.43,4.56-13,4.56-16.1,0-41.52-8.9-66.32-23.22C19.83,78.36-1.73,51.61,3.83,42c1.2-2.08,4.43-4.56,13-4.56h0m0-3c-7.69,0-13.21,1.95-15.58,6-7.31,12.66,18.17,41.06,56.91,63.43,26.2,15.13,51.75,23.62,67.81,23.62,7.69,0,13.21-1.95,15.58-6,7.31-12.66-18.17-41.06-56.91-63.43C58.44,42.95,32.89,34.45,16.83,34.45Z"/><circle class="b" cx="113.15" cy="123.96" r="5.16"/><circle class="c" cx="113.35" cy="37.5" r="5.16"/><circle class="d" cx="84.86" cy="16.01" r="5.16"/><path class="e" d="M84.25,45.09c2.91,0,5.4,3.27,5.4,7.53V83.24c0,4.06-2.49,7.53-5.4,7.53h-.36L89.79,112H77.71l-6-21.21H66.48V112H54.12V45.09ZM77.35,60.45c0-.5-.36-1-.64-1H66.48V77.29H76.71c.28,0,.64-.5.64-.89Z"/><polygon class="f" points="60.99 141.36 64.22 115.78 57.76 115.78 60.99 141.36"/><polygon class="g" points="57.68 135.95 60.91 110.37 54.45 110.37 57.68 135.95"/><polygon class="h" points="62.75 135.46 65.98 109.88 59.52 109.88 62.75 135.46"/><polygon class="f" points="84.15 141.6 87.38 116.03 80.92 116.03 84.15 141.6"/><polygon class="g" points="80.84 136.19 84.07 110.61 77.61 110.61 80.84 136.19"/><polygon class="h" points="85.91 135.7 89.14 110.12 82.68 110.12 85.91 135.7"/><polygon class="i" points="90.03 112.33 77.45 112.33 75.69 105.2 88.26 105.2 90.03 112.33"/><rect class="i" x="53.85" y="105.2" width="13.01" height="7.13"/><rect class="j" x="53.63" y="105.94" width="13.45" height="0.74"/><rect class="j" x="53.63" y="107.17" width="13.45" height="0.74"/><rect class="j" x="53.63" y="108.4" width="13.45" height="0.74"/><rect class="j" x="53.63" y="109.63" width="13.45" height="0.74"/><rect class="j" x="53.63" y="110.86" width="13.45" height="0.74"/><polygon class="j" points="88.75 106.68 88.56 105.94 75.77 105.94 75.95 106.68 88.75 106.68"/><polygon class="j" points="89.07 107.91 88.88 107.17 76.08 107.17 76.26 107.91 89.07 107.91"/><polygon class="j" points="89.39 109.14 89.2 108.4 76.39 108.4 76.58 109.14 89.39 109.14"/><polygon class="j" points="89.71 110.37 89.52 109.63 76.7 109.63 76.89 110.37 89.71 110.37"/><polygon class="j" points="90.03 111.6 89.84 110.86 77.01 110.86 77.2 111.6 90.03 111.6"/></svg>