<?xml version="1.0" encoding="utf-8"?>
<!-- Generator: Adobe Illustrator 21.1.0, SVG Export Plug-In . SVG Version: 6.00 Build 0)  -->
<svg version="1.1" id="Layer_1" xmlns="http://www.w3.org/2000/svg" xmlns:xlink="http://www.w3.org/1999/xlink" x="0px" y="0px"
	 viewBox="0 0 142.8 162" style="enable-background:new 0 0 142.8 162;" xml:space="preserve">
<style type="text/css">
	.st0{fill:#17AAFF;}
	.st1{fill:#33CC00;}
	.st2{fill:#E700DA;}
	.st3{fill:#00BCD0;}
	.st4{enable-background:new    ;}
	.st5{fill:#F71934;}
	.st6{fill:#ED900A;}
	.st7{fill:#FCF62B;}
	.st8{fill:#4C4C4B;}
	.st9{fill:#727268;}
</style>
<title>rrl_logo</title>
<g>
	<path class="st0" d="M71.4,3c11.1,0,23.5,32,23.5,78s-12.4,78-23.5,78s-23.5-32-23.5-78S60.3,3,71.4,3 M71.4,0
		C56.8,0,44.9,36.3,44.9,81s11.8,81,26.5,81s26.5-36.3,26.5-81S86,0,71.4,0z"/>
	<path class="st0" d="M126,37.4c8.6,0,11.8,2.5,13,4.6c5.6,9.6-16,36.4-55.8,59.4c-24.8,14.3-50.2,23.2-66.3,23.2
		c-8.6,0-11.8-2.5-13-4.6c-5.6-9.6,16-36.4,55.8-59.4C84.5,46.3,109.9,37.4,126,37.4L126,37.4 M126,34.4c-16.1,0-41.6,8.5-67.8,23.6
		C19.4,80.4-6.1,108.8,1.2,121.5c2.4,4.1,7.9,6,15.6,6c16.1,0,41.6-8.5,67.8-23.6c38.7-22.4,64.2-50.8,56.9-63.4
		C139.2,36.3,133.7,34.4,126,34.4L126,34.4z"/>
	<path class="st0" d="M16.8,37.4c16.1,0,41.5,8.9,66.3,23.2c39.8,23,61.4,49.7,55.8,59.3c-1.2,2.1-4.4,4.6-13,4.6
		c-16.1,0-41.5-8.9-66.3-23.2C19.8,78.4-1.7,51.6,3.8,42C5,39.9,8.3,37.4,16.8,37.4L16.8,37.4 M16.8,34.4c-7.7,0-13.2,2-15.6,6
		c-7.3,12.7,18.2,41.1,56.9,63.4c26.2,15.1,51.8,23.6,67.8,23.6c7.7,0,13.2-1.9,15.6-6c7.3-12.7-18.2-41.1-56.9-63.4
		C58.4,43,32.9,34.5,16.8,34.4L16.8,34.4z"/>
	<circle class="st1" cx="113.2" cy="124" r="5.2"/>
	<circle class="st2" cx="113.3" cy="37.5" r="5.2"/>
	<circle class="st3" cx="84.9" cy="16" r="5.2"/>
	<g class="st4">
		<path d="M84.4,45.1c2.9,0,5.4,3.3,5.4,7.5v30.6c0,4.1-2.5,7.5-5.4,7.5H84L90,112H77.8l-6-21.2h-5.3V112H54.1V45.1H84.4z
			 M77.5,60.4c0-0.5-0.4-1-0.6-1H66.6v17.8h10.3c0.3,0,0.6-0.5,0.6-0.9V60.4z"/>
	</g>
	<polygon class="st5" points="61,141.4 64.2,115.8 57.8,115.8 	"/>
	<polygon class="st6" points="57.7,135.9 60.9,110.4 54.5,110.4 	"/>
	<polygon class="st7" points="62.8,135.5 66,109.9 59.5,109.9 	"/>
	<polygon class="st5" points="84.2,141.6 87.4,116 80.9,116 	"/>
	<polygon class="st6" points="80.8,136.2 84.1,110.6 77.6,110.6 	"/>
	<polygon class="st7" points="85.9,135.7 89.1,110.1 82.7,110.1 	"/>
	<polygon class="st8" points="90,112.3 77.4,112.3 75.7,105.2 88.3,105.2 	"/>
	<rect x="53.8" y="105.2" class="st8" width="13" height="7.1"/>
	<rect x="53.6" y="105.9" class="st9" width="13.5" height="0.7"/>
	<rect x="53.6" y="107.2" class="st9" width="13.5" height="0.7"/>
	<rect x="53.6" y="108.4" class="st9" width="13.5" height="0.7"/>
	<rect x="53.6" y="109.6" class="st9" width="13.5" height="0.7"/>
	<rect x="53.6" y="110.9" class="st9" width="13.5" height="0.7"/>
	<polygon class="st9" points="88.8,106.7 88.6,105.9 75.8,105.9 75.9,106.7 	"/>
	<polygon class="st9" points="89.1,107.9 88.9,107.2 76.1,107.2 76.3,107.9 	"/>
	<polygon class="st9" points="89.4,109.1 89.2,108.4 76.4,108.4 76.6,109.1 	"/>
	<polygon class="st9" points="89.7,110.4 89.5,109.6 76.7,109.6 76.9,110.4 	"/>
	<polygon class="st9" points="90,111.6 89.8,110.9 77,110.9 77.2,111.6 	"/>
</g>
</svg>
